<mxfile host="app.diagrams.net" agent="Mozilla/5.0 (Windows NT 10.0; Win64; x64) AppleWebKit/537.36 (KHTML, like Gecko) Chrome/133.0.0.0 Safari/537.36" version="26.0.14">
  <diagram id="C5RBs43oDa-KdzZeNtuy" name="Page-1">
    <mxGraphModel dx="1235" dy="614" grid="1" gridSize="10" guides="1" tooltips="1" connect="1" arrows="1" fold="1" page="1" pageScale="1" pageWidth="827" pageHeight="1169" math="0" shadow="0">
      <root>
        <mxCell id="WIyWlLk6GJQsqaUBKTNV-0" />
        <mxCell id="WIyWlLk6GJQsqaUBKTNV-1" parent="WIyWlLk6GJQsqaUBKTNV-0" />
        <mxCell id="V3w_qGJQU6IBf5Xa9WQb-1" value="&lt;p style=&quot;margin:0px;margin-top:4px;text-align:center;&quot;&gt;&lt;b&gt;User&lt;/b&gt;&lt;/p&gt;&lt;hr size=&quot;1&quot; style=&quot;border-style:solid;&quot;&gt;&lt;p style=&quot;margin:0px;margin-left:4px;&quot;&gt;-id: Long&lt;/p&gt;&lt;p style=&quot;margin:0px;margin-left:4px;&quot;&gt;-email: String&lt;/p&gt;&lt;p style=&quot;margin:0px;margin-left:4px;&quot;&gt;-password: String&lt;/p&gt;&lt;p style=&quot;margin:0px;margin-left:4px;&quot;&gt;-firstName: String&lt;/p&gt;&lt;p style=&quot;margin:0px;margin-left:4px;&quot;&gt;-lastName: String&lt;/p&gt;&lt;p style=&quot;margin:0px;margin-left:4px;&quot;&gt;-role: String&lt;/p&gt;&lt;p style=&quot;margin:0px;margin-left:4px;&quot;&gt;&lt;span style=&quot;background-color: transparent; color: light-dark(rgb(0, 0, 0), rgb(255, 255, 255));&quot;&gt;-applications: List&amp;lt;Application&amp;gt;&lt;/span&gt;&lt;/p&gt;&lt;p style=&quot;margin:0px;margin-left:4px;&quot;&gt;&lt;span style=&quot;background-color: transparent; color: light-dark(rgb(0, 0, 0), rgb(255, 255, 255));&quot;&gt;-department: Department&lt;/span&gt;&lt;/p&gt;&lt;p style=&quot;margin:0px;margin-left:4px;&quot;&gt;&lt;br&gt;&lt;/p&gt;" style="verticalAlign=top;align=left;overflow=fill;html=1;whiteSpace=wrap;" parent="WIyWlLk6GJQsqaUBKTNV-1" vertex="1">
          <mxGeometry x="550" y="50" width="190" height="150" as="geometry" />
        </mxCell>
        <mxCell id="V3w_qGJQU6IBf5Xa9WQb-4" value="&lt;p style=&quot;margin:0px;margin-top:4px;text-align:center;&quot;&gt;&lt;b&gt;Application&lt;/b&gt;&lt;/p&gt;&lt;hr size=&quot;1&quot; style=&quot;border-style:solid;&quot;&gt;&lt;p style=&quot;margin:0px;margin-left:4px;&quot;&gt;-id: Long&lt;/p&gt;&lt;p style=&quot;margin:0px;margin-left:4px;&quot;&gt;-user: User&lt;/p&gt;&lt;p style=&quot;margin:0px;margin-left:4px;&quot;&gt;-date: String&lt;/p&gt;&lt;p style=&quot;margin:0px;margin-left:4px;&quot;&gt;-text: String&lt;/p&gt;&lt;p style=&quot;margin:0px;margin-left:4px;&quot;&gt;-state: Enum&lt;/p&gt;&lt;p style=&quot;margin:0px;margin-left:4px;&quot;&gt;-department: Department&lt;/p&gt;" style="verticalAlign=top;align=left;overflow=fill;html=1;whiteSpace=wrap;" parent="WIyWlLk6GJQsqaUBKTNV-1" vertex="1">
          <mxGeometry x="360" y="170" width="160" height="150" as="geometry" />
        </mxCell>
        <mxCell id="8dzCbYCsEoujOo1IBsaC-1" value="&lt;p style=&quot;margin:0px;margin-top:4px;text-align:center;&quot;&gt;&lt;b&gt;ApplicationRepository&lt;/b&gt;&lt;/p&gt;&lt;hr size=&quot;1&quot; style=&quot;border-style:solid;&quot;&gt;&lt;div style=&quot;height:2px;&quot;&gt;&lt;/div&gt;" style="verticalAlign=top;align=left;overflow=fill;html=1;whiteSpace=wrap;" parent="WIyWlLk6GJQsqaUBKTNV-1" vertex="1">
          <mxGeometry x="230" y="350" width="140" height="30" as="geometry" />
        </mxCell>
        <mxCell id="8dzCbYCsEoujOo1IBsaC-2" value="&lt;p style=&quot;margin:0px;margin-top:4px;text-align:center;&quot;&gt;&lt;b&gt;UserRepository&lt;/b&gt;&lt;/p&gt;&lt;hr size=&quot;1&quot; style=&quot;border-style:solid;&quot;&gt;&lt;div style=&quot;height:2px;&quot;&gt;&lt;/div&gt;" style="verticalAlign=top;align=left;overflow=fill;html=1;whiteSpace=wrap;" parent="WIyWlLk6GJQsqaUBKTNV-1" vertex="1">
          <mxGeometry x="880" y="128" width="140" height="30" as="geometry" />
        </mxCell>
        <mxCell id="8dzCbYCsEoujOo1IBsaC-3" style="edgeStyle=orthogonalEdgeStyle;rounded=0;orthogonalLoop=1;jettySize=auto;html=1;exitX=0.5;exitY=1;exitDx=0;exitDy=0;" parent="WIyWlLk6GJQsqaUBKTNV-1" source="V3w_qGJQU6IBf5Xa9WQb-4" target="V3w_qGJQU6IBf5Xa9WQb-4" edge="1">
          <mxGeometry relative="1" as="geometry" />
        </mxCell>
        <mxCell id="8dzCbYCsEoujOo1IBsaC-5" value="Use" style="endArrow=open;endSize=12;dashed=1;html=1;rounded=0;entryX=1;entryY=0.5;entryDx=0;entryDy=0;exitX=0;exitY=0.5;exitDx=0;exitDy=0;" parent="WIyWlLk6GJQsqaUBKTNV-1" source="8dzCbYCsEoujOo1IBsaC-2" target="V3w_qGJQU6IBf5Xa9WQb-1" edge="1">
          <mxGeometry width="160" relative="1" as="geometry">
            <mxPoint x="490" y="200" as="sourcePoint" />
            <mxPoint x="650" y="200" as="targetPoint" />
          </mxGeometry>
        </mxCell>
        <mxCell id="8dzCbYCsEoujOo1IBsaC-6" value="Use" style="endArrow=open;endSize=12;dashed=1;html=1;rounded=0;exitX=0.5;exitY=0;exitDx=0;exitDy=0;entryX=0;entryY=0.75;entryDx=0;entryDy=0;" parent="WIyWlLk6GJQsqaUBKTNV-1" source="8dzCbYCsEoujOo1IBsaC-1" target="V3w_qGJQU6IBf5Xa9WQb-4" edge="1">
          <mxGeometry width="160" relative="1" as="geometry">
            <mxPoint x="795" y="339.5" as="sourcePoint" />
            <mxPoint x="720" y="340" as="targetPoint" />
          </mxGeometry>
        </mxCell>
        <mxCell id="KHRvTLOkRNR9krxfmo4q-0" value="UserService" style="swimlane;fontStyle=1;align=center;verticalAlign=top;childLayout=stackLayout;horizontal=1;startSize=26;horizontalStack=0;resizeParent=1;resizeParentMax=0;resizeLast=0;collapsible=1;marginBottom=0;whiteSpace=wrap;html=1;" parent="WIyWlLk6GJQsqaUBKTNV-1" vertex="1">
          <mxGeometry x="820" y="20" width="160" height="80" as="geometry" />
        </mxCell>
        <mxCell id="KHRvTLOkRNR9krxfmo4q-3" value="+getAllUsers(): String&lt;div&gt;+save(User): void&lt;/div&gt;&lt;div&gt;+getDeptId(Long): Long&lt;/div&gt;" style="text;strokeColor=none;fillColor=none;align=left;verticalAlign=top;spacingLeft=4;spacingRight=4;overflow=hidden;rotatable=0;points=[[0,0.5],[1,0.5]];portConstraint=eastwest;whiteSpace=wrap;html=1;" parent="KHRvTLOkRNR9krxfmo4q-0" vertex="1">
          <mxGeometry y="26" width="160" height="54" as="geometry" />
        </mxCell>
        <mxCell id="KHRvTLOkRNR9krxfmo4q-4" value="ApplicationService" style="swimlane;fontStyle=1;align=center;verticalAlign=top;childLayout=stackLayout;horizontal=1;startSize=26;horizontalStack=0;resizeParent=1;resizeParentMax=0;resizeLast=0;collapsible=1;marginBottom=0;whiteSpace=wrap;html=1;" parent="WIyWlLk6GJQsqaUBKTNV-1" vertex="1">
          <mxGeometry x="70" y="30" width="230" height="150" as="geometry" />
        </mxCell>
        <mxCell id="KHRvTLOkRNR9krxfmo4q-7" value="+getById(Long): Application&lt;div&gt;+getApplicationsOfUser(Long):&lt;/div&gt;&lt;div&gt;List&amp;lt;Application&amp;gt;&lt;/div&gt;&lt;div&gt;+getApplicationsOfDepartment(Long):&lt;/div&gt;&lt;div&gt;LIst&amp;lt;Application&amp;gt;&lt;/div&gt;&lt;div&gt;+deleteApplication(Long): void&lt;/div&gt;&lt;div&gt;+addApplication(User, Long, String): boolean&lt;/div&gt;" style="text;strokeColor=none;fillColor=none;align=left;verticalAlign=top;spacingLeft=4;spacingRight=4;overflow=hidden;rotatable=0;points=[[0,0.5],[1,0.5]];portConstraint=eastwest;whiteSpace=wrap;html=1;" parent="KHRvTLOkRNR9krxfmo4q-4" vertex="1">
          <mxGeometry y="26" width="230" height="124" as="geometry" />
        </mxCell>
        <mxCell id="KHRvTLOkRNR9krxfmo4q-10" value="" style="endArrow=open;endSize=12;dashed=1;html=1;rounded=0;exitX=0.994;exitY=0.436;exitDx=0;exitDy=0;entryX=0;entryY=0.5;entryDx=0;entryDy=0;exitPerimeter=0;" parent="WIyWlLk6GJQsqaUBKTNV-1" source="KHRvTLOkRNR9krxfmo4q-7" target="V3w_qGJQU6IBf5Xa9WQb-4" edge="1">
          <mxGeometry width="160" relative="1" as="geometry">
            <mxPoint x="300" y="139" as="sourcePoint" />
            <mxPoint x="620" y="270" as="targetPoint" />
          </mxGeometry>
        </mxCell>
        <mxCell id="KHRvTLOkRNR9krxfmo4q-11" value="" style="endArrow=open;endSize=12;dashed=1;html=1;rounded=0;entryX=1;entryY=0.25;entryDx=0;entryDy=0;exitX=0;exitY=0.25;exitDx=0;exitDy=0;" parent="WIyWlLk6GJQsqaUBKTNV-1" source="KHRvTLOkRNR9krxfmo4q-0" target="V3w_qGJQU6IBf5Xa9WQb-1" edge="1">
          <mxGeometry width="160" relative="1" as="geometry">
            <mxPoint x="807" y="-31" as="sourcePoint" />
            <mxPoint x="600" y="190" as="targetPoint" />
          </mxGeometry>
        </mxCell>
        <mxCell id="BN7Lg8rzTa6UfzPQaUZV-0" value="&lt;p style=&quot;margin:0px;margin-top:4px;text-align:center;&quot;&gt;&lt;b&gt;DepartmentRepository&lt;/b&gt;&lt;/p&gt;&lt;hr size=&quot;1&quot; style=&quot;border-style:solid;&quot;&gt;&lt;div style=&quot;height:2px;&quot;&gt;&lt;/div&gt;" style="verticalAlign=top;align=left;overflow=fill;html=1;whiteSpace=wrap;" parent="WIyWlLk6GJQsqaUBKTNV-1" vertex="1">
          <mxGeometry x="1020" y="260" width="140" height="30" as="geometry" />
        </mxCell>
        <mxCell id="BN7Lg8rzTa6UfzPQaUZV-9" value="" style="endArrow=none;html=1;rounded=0;entryX=0;entryY=0.5;entryDx=0;entryDy=0;exitX=0.5;exitY=0;exitDx=0;exitDy=0;" parent="WIyWlLk6GJQsqaUBKTNV-1" source="V3w_qGJQU6IBf5Xa9WQb-4" target="V3w_qGJQU6IBf5Xa9WQb-1" edge="1">
          <mxGeometry relative="1" as="geometry">
            <mxPoint x="200" y="240" as="sourcePoint" />
            <mxPoint x="470" y="240" as="targetPoint" />
          </mxGeometry>
        </mxCell>
        <mxCell id="BN7Lg8rzTa6UfzPQaUZV-10" value="*" style="resizable=0;html=1;whiteSpace=wrap;align=left;verticalAlign=bottom;" parent="BN7Lg8rzTa6UfzPQaUZV-9" connectable="0" vertex="1">
          <mxGeometry x="-1" relative="1" as="geometry" />
        </mxCell>
        <mxCell id="BN7Lg8rzTa6UfzPQaUZV-11" value="1" style="resizable=0;html=1;whiteSpace=wrap;align=right;verticalAlign=bottom;" parent="BN7Lg8rzTa6UfzPQaUZV-9" connectable="0" vertex="1">
          <mxGeometry x="1" relative="1" as="geometry" />
        </mxCell>
        <mxCell id="BN7Lg8rzTa6UfzPQaUZV-14" value="Department" style="swimlane;fontStyle=1;align=center;verticalAlign=top;childLayout=stackLayout;horizontal=1;startSize=26;horizontalStack=0;resizeParent=1;resizeParentMax=0;resizeLast=0;collapsible=1;marginBottom=0;whiteSpace=wrap;html=1;" parent="WIyWlLk6GJQsqaUBKTNV-1" vertex="1">
          <mxGeometry x="770" y="220" width="170" height="110" as="geometry" />
        </mxCell>
        <mxCell id="BN7Lg8rzTa6UfzPQaUZV-15" value="&lt;div&gt;-id: Long&lt;/div&gt;-name: String&lt;div&gt;-applications: List&amp;lt;Application&amp;gt;&lt;/div&gt;&lt;div&gt;-moderators: List&amp;lt;User&amp;gt;&lt;/div&gt;" style="text;strokeColor=none;fillColor=none;align=left;verticalAlign=top;spacingLeft=4;spacingRight=4;overflow=hidden;rotatable=0;points=[[0,0.5],[1,0.5]];portConstraint=eastwest;whiteSpace=wrap;html=1;" parent="BN7Lg8rzTa6UfzPQaUZV-14" vertex="1">
          <mxGeometry y="26" width="170" height="84" as="geometry" />
        </mxCell>
        <mxCell id="BN7Lg8rzTa6UfzPQaUZV-18" value="Use" style="endArrow=open;endSize=12;dashed=1;html=1;rounded=0;exitX=0;exitY=0.5;exitDx=0;exitDy=0;entryX=1.024;entryY=0.362;entryDx=0;entryDy=0;entryPerimeter=0;" parent="WIyWlLk6GJQsqaUBKTNV-1" source="BN7Lg8rzTa6UfzPQaUZV-0" target="BN7Lg8rzTa6UfzPQaUZV-15" edge="1">
          <mxGeometry width="160" relative="1" as="geometry">
            <mxPoint x="400" y="280" as="sourcePoint" />
            <mxPoint x="700" y="370" as="targetPoint" />
          </mxGeometry>
        </mxCell>
        <mxCell id="BN7Lg8rzTa6UfzPQaUZV-19" value="" style="endArrow=none;html=1;rounded=0;exitX=1;exitY=0.5;exitDx=0;exitDy=0;entryX=0;entryY=0.5;entryDx=0;entryDy=0;" parent="WIyWlLk6GJQsqaUBKTNV-1" source="V3w_qGJQU6IBf5Xa9WQb-4" target="BN7Lg8rzTa6UfzPQaUZV-15" edge="1">
          <mxGeometry relative="1" as="geometry">
            <mxPoint x="510" y="326" as="sourcePoint" />
            <mxPoint x="410" y="390" as="targetPoint" />
          </mxGeometry>
        </mxCell>
        <mxCell id="BN7Lg8rzTa6UfzPQaUZV-20" value="*" style="resizable=0;html=1;whiteSpace=wrap;align=left;verticalAlign=bottom;" parent="BN7Lg8rzTa6UfzPQaUZV-19" connectable="0" vertex="1">
          <mxGeometry x="-1" relative="1" as="geometry" />
        </mxCell>
        <mxCell id="BN7Lg8rzTa6UfzPQaUZV-21" value="1" style="resizable=0;html=1;whiteSpace=wrap;align=right;verticalAlign=bottom;" parent="BN7Lg8rzTa6UfzPQaUZV-19" connectable="0" vertex="1">
          <mxGeometry x="1" relative="1" as="geometry" />
        </mxCell>
        <mxCell id="BN7Lg8rzTa6UfzPQaUZV-42" style="edgeStyle=orthogonalEdgeStyle;rounded=0;orthogonalLoop=1;jettySize=auto;html=1;exitX=0.5;exitY=1;exitDx=0;exitDy=0;" parent="WIyWlLk6GJQsqaUBKTNV-1" source="V3w_qGJQU6IBf5Xa9WQb-1" target="V3w_qGJQU6IBf5Xa9WQb-1" edge="1">
          <mxGeometry relative="1" as="geometry" />
        </mxCell>
        <mxCell id="wwQAkNazUdFHkSqScJKQ-0" value="" style="endArrow=none;html=1;rounded=0;exitX=1;exitY=0.75;exitDx=0;exitDy=0;entryX=0.5;entryY=0;entryDx=0;entryDy=0;" edge="1" parent="WIyWlLk6GJQsqaUBKTNV-1" source="V3w_qGJQU6IBf5Xa9WQb-1" target="BN7Lg8rzTa6UfzPQaUZV-14">
          <mxGeometry relative="1" as="geometry">
            <mxPoint x="530" y="255" as="sourcePoint" />
            <mxPoint x="810" y="163" as="targetPoint" />
          </mxGeometry>
        </mxCell>
        <mxCell id="wwQAkNazUdFHkSqScJKQ-1" value="*" style="resizable=0;html=1;whiteSpace=wrap;align=left;verticalAlign=bottom;" connectable="0" vertex="1" parent="wwQAkNazUdFHkSqScJKQ-0">
          <mxGeometry x="-1" relative="1" as="geometry" />
        </mxCell>
        <mxCell id="wwQAkNazUdFHkSqScJKQ-2" value="1" style="resizable=0;html=1;whiteSpace=wrap;align=right;verticalAlign=bottom;" connectable="0" vertex="1" parent="wwQAkNazUdFHkSqScJKQ-0">
          <mxGeometry x="1" relative="1" as="geometry" />
        </mxCell>
        <mxCell id="wwQAkNazUdFHkSqScJKQ-4" value="DepartmentService" style="swimlane;fontStyle=1;align=center;verticalAlign=top;childLayout=stackLayout;horizontal=1;startSize=26;horizontalStack=0;resizeParent=1;resizeParentMax=0;resizeLast=0;collapsible=1;marginBottom=0;whiteSpace=wrap;html=1;" vertex="1" parent="WIyWlLk6GJQsqaUBKTNV-1">
          <mxGeometry x="680" y="370" width="270" height="70" as="geometry" />
        </mxCell>
        <mxCell id="wwQAkNazUdFHkSqScJKQ-7" value="+getAllDepartments(): List&amp;lt;Department&amp;gt;&lt;div&gt;+loadDepartmentById(Long): Department&lt;br&gt;&lt;div&gt;&lt;br&gt;&lt;/div&gt;&lt;/div&gt;" style="text;strokeColor=none;fillColor=none;align=left;verticalAlign=top;spacingLeft=4;spacingRight=4;overflow=hidden;rotatable=0;points=[[0,0.5],[1,0.5]];portConstraint=eastwest;whiteSpace=wrap;html=1;" vertex="1" parent="wwQAkNazUdFHkSqScJKQ-4">
          <mxGeometry y="26" width="270" height="44" as="geometry" />
        </mxCell>
        <mxCell id="wwQAkNazUdFHkSqScJKQ-9" value="" style="endArrow=open;endSize=12;dashed=1;html=1;rounded=0;entryX=0.452;entryY=0.989;entryDx=0;entryDy=0;exitX=0.5;exitY=0;exitDx=0;exitDy=0;entryPerimeter=0;" edge="1" parent="WIyWlLk6GJQsqaUBKTNV-1" source="wwQAkNazUdFHkSqScJKQ-4" target="BN7Lg8rzTa6UfzPQaUZV-15">
          <mxGeometry width="160" relative="1" as="geometry">
            <mxPoint x="1045" y="320" as="sourcePoint" />
            <mxPoint x="965" y="366" as="targetPoint" />
          </mxGeometry>
        </mxCell>
      </root>
    </mxGraphModel>
  </diagram>
</mxfile>
